#!OML:ASF E:\acrobat2\Project_11_07_03\Capture day 1\Session 1\Acrobat.ASF
:FULLY-SPECIFIED
:DEGREES
1115
root 8.55683 21.3094 25.0102 417.17 -86.9348 -54.3237
lowerback -0.67762 4.17149 4.86967
upperback -0.0252491 5.53883 -2.71997
thorax 1.08556 2.80723 -5.41225
lowerneck -0.102646 -2.84877 -1.60177
upperneck 7.0344 -3.99079 2.44824
head 2.3203 -1.9934 0.963764
rclavicle 4.95471e-014 -3.10104e-014
rhumerus 18.4557 17.4937 -55.0016
rradius 22.3536
rwrist 9.17891
rhand 7.17791 -26.7233
rfingers 7.12502
rthumb 32.445 -53.839
lclavicle 4.95471e-014 -3.10104e-014
lhumerus -29.0869 -9.86832 82.4853
lradius 24.5112
lwrist 17.0953
lhand 13.8383 -13.4411
lfingers 7.12502
lthumb 38.7571 12.148
rfemur 11.3629 -0.278797 24.9507
rtibia 1.11319e-014
rfoot -1.38516 -15.0373
rtoes 39.6999
lfemur -32.6018 3.35345 -13.1466
ltibia 69.4811
lfoot 7.49646 -12.7708
ltoes 6.23127
1116
root 8.55251 21.287 25.0157 412.401 -86.6938 -49.6426
lowerback -0.436289 4.25489 4.83882
upperback 0.171905 5.65914 -2.67482
thorax 1.1623 2.87419 -5.35331
lowerneck -0.0716364 -3.05762 -1.802
upperneck 6.79154 -4.25604 2.44848
head 2.24639 -2.12942 0.993661
rclavicle -1.74931e-014 8.74653e-015
rhumerus 15.9691 17.1483 -57.1582
rradius 21.8863
rwrist 10.5477
rhand 7.32503 -26.4419
rfingers 7.12502
rthumb 32.585 -53.5287
lclavicle -1.74931e-014 8.74653e-015
lhumerus -28.7989 -10.1358 82.5249
lradius 24.6283
lwrist 17.3094
lhand 13.661 -13.5353
lfingers 7.12502
lthumb 38.5898 12.101
rfemur 11.5147 -0.606022 24.9679
rtibia -3.81667e-014
rfoot -1.53448 -14.8518
rtoes 39.699
lfemur -33.5265 3.29938 -12.9568
ltibia 70.5053
lfoot 5.96525 -13.4885
ltoes 5.44157
1117
root 8.5454 21.2646 25.0197 408.76 -86.3969 -46.0829
lowerback -0.193734 4.33984 4.83057
upperback 0.361841 5.78093 -2.60793
thorax 1.23078 2.94128 -5.28531
lowerneck -0.0120511 -3.26665 -1.97489
upperneck 6.51994 -4.51963 2.40573
head 2.15664 -2.26491 1.00607
rclavicle -3.0265e-014 2.8625e-014
rhumerus 13.4254 16.5845 -59.2685
rradius 21.4735
rwrist 12.1189
rhand 7.51013 -26.0693
rfingers 7.12502
rthumb 32.7611 -53.1196
lclavicle -3.0265e-014 2.8625e-014
lhumerus -28.5313 -10.3344 82.5061
lradius 24.7296
lwrist 17.3668
lhand 13.6107 -13.6777
lfingers 7.12502
lthumb 38.5423 11.9719
rfemur 11.6678 -0.935829 25.0371
rtibia -6.36111e-015
rfoot -1.69131 -14.6447
rtoes 39.7049
lfemur -34.4018 3.26505 -12.7097
ltibia 71.3782
lfoot 4.09059 -14.115
ltoes 4.09031
1118
root 8.53563 21.2423 25.0229 405.993 -86.0529 -43.3882
lowerback 0.0528036 4.42464 4.84335
upperback 0.541071 5.90222 -2.52121
thorax 1.28563 3.00731 -5.20987
lowerneck 0.0889504 -3.45281 -2.13828
upperneck 6.21908 -4.75414 2.36873
head 2.04987 -2.38567 1.02056
rclavicle 6.82328e-014 -8.74653e-015
rhumerus 10.8449 15.8008 -61.3152
rradius 21.0992
rwrist 13.8121
rhand 7.66988 -25.6158
rfingers 7.12502
rthumb 32.9131 -52.6343
lclavicle 6.82328e-014 -8.74653e-015
lhumerus -28.2906 -10.4567 82.4388
lradius 24.8216
lwrist 17.2629
lhand 13.6728 -13.8464
lfingers 7.12502
lthumb 38.601 11.7867
rfemur 11.8201 -1.27428 25.1493
rtibia -1.27222e-014
rfoot -1.87815 -14.4414
rtoes 39.5725
lfemur -35.223 3.22903 -12.4133
ltibia 72.0851
lfoot 2.03765 -14.5715
ltoes 2.82802
1119
root 8.52348 21.2208 25.0265 403.692 -85.6754 -41.1431
lowerback 0.299148 4.50523 4.8713
upperback 0.707655 6.01759 -2.42625
thorax 1.3272 3.0696 -5.13572
lowerneck 0.224631 -3.6098 -2.30678
upperneck 5.89756 -4.95278 2.36435
head 1.9314 -2.48804 1.0482
rclavicle 2.44505e-014 3.18055e-015
rhumerus 8.25478 14.779 -63.2987
rradius 20.7357
rwrist 15.5477
rhand 7.7468 -25.1206
rfingers 7.12502
rthumb 32.9863 -52.1237
lclavicle 2.44505e-014 3.18055e-015
lhumerus -28.0799 -10.5023 82.3297
lradius 24.9031
lwrist 16.9647
lhand 13.7488 -14.0385
lfingers 7.12502
lthumb 38.6726 11.5745
rfemur 11.9609 -1.62892 25.2766
rtibia -2.22639e-014
rfoot -2.08673 -14.2649
rtoes 39.2288
lfemur -35.9895 3.16092 -12.0976
ltibia 72.6056
lfoot -0.0169579 -14.8254
ltoes 2.27411
1120
root 8.5092 21.2009 25.0321 401.366 -85.2848 -38.8461
lowerback 0.534341 4.57292 4.89178
upperback 0.860383 6.11518 -2.33848
thorax 1.35826 3.12215 -5.06573
lowerneck 0.384236 -3.73489 -2.47679
upperneck 5.56988 -5.11178 2.38607
head 1.8076 -2.57019 1.08607
rclavicle 4.72114e-014 -1.59028e-015
rhumerus 5.67844 13.5128 -65.2165
rradius 20.3688
rwrist 17.2515
rhand 7.71633 -24.6432
rfingers 7.12502
rthumb 32.9573 -51.6524
lclavicle 4.72114e-014 -1.59028e-015
lhumerus -27.9038 -10.4387 82.176
lradius 24.9626
lwrist 16.4701
lhand 13.6941 -14.2981
lfingers 7.12502
lthumb 38.621 11.3294
rfemur 12.0775 -2.00722 25.3698
rtibia -2.70347e-014
rfoot -2.29397 -14.1254
rtoes 38.709
lfemur -36.7019 3.03116 -11.8179
ltibia 72.9195
lfoot -1.98846 -14.8668
ltoes 2.37818
1121
root 8.49295 21.1828 25.0405 398.733 -84.891 -36.2086
lowerback 0.750906 4.62244 4.88517
upperback 0.997914 6.18764 -2.26705
thorax 1.37964 3.16118 -4.99799
lowerneck 0.553814 -3.85154 -2.60598
upperneck 5.24447 -5.2582 2.3432
head 1.67986 -2.64623 1.09738
rclavicle 6.63941e-014 -1.82882e-014
rhumerus 3.12761 12.0382 -67.0397
rradius 19.9965
rwrist 18.82
rhand 7.54629 -24.2408
rfingers 7.12502
rthumb 32.7955 -51.2839
lclavicle 6.63941e-014 -1.82882e-014
lhumerus -27.7614 -10.2096 81.9638
lradius 24.9833
lwrist 15.8563
lhand 13.4934 -14.6509
lfingers 7.12502
lthumb 38.4317 11.0295
rfemur 12.1624 -2.41607 25.3946
rtibia -7.95139e-015
rfoot -2.49944 -14.0237
rtoes 38.1655
lfemur -37.3602 2.8271 -11.6168
ltibia 73.0102
lfoot -3.82044 -14.6975
ltoes 2.9526
1122
root 8.47477 21.1667 25.0518 395.741 -84.4931 -33.1762
lowerback 0.9478 4.65168 4.84076
upperback 1.11812 6.23211 -2.2148
thorax 1.38856 3.18506 -4.92948
lowerneck 0.74328 -3.97086 -2.68397
upperneck 4.90618 -5.40574 2.20257
head 1.5403 -2.72314 1.07016
rclavicle -3.91606e-014 2.06736e-014
rhumerus 0.609338 10.3837 -68.7454
rradius 19.6057
rwrist 20.1758
rhand 7.20405 -23.9496
rfingers 7.12502
rthumb 32.4699 -51.0602
lclavicle -3.91606e-014 2.06736e-014
lhumerus -27.6645 -9.83905 81.7033
lradius 24.9701
lwrist 15.2594
lhand 13.1573 -15.0664
lfingers 7.12502
lthumb 38.1144 10.7016
rfemur 12.2169 -2.85853 25.3389
rtibia -1.27222e-014
rfoot -2.69755 -13.9412
rtoes 37.7462
lfemur -37.9619 2.54881 -11.5115
ltibia 72.8706
lfoot -5.50922 -14.3429
ltoes 3.74844
1123
root 8.45451 21.153 25.066 392.382 -84.0898 -29.7405
lowerback 1.12057 4.65728 4.74846
upperback 1.22149 6.24377 -2.18486
thorax 1.38673 3.19135 -4.85737
lowerneck 0.965083 -4.10442 -2.70491
upperneck 4.52546 -5.56911 1.93296
head 1.37644 -2.80819 0.994468
rclavicle 1.88845e-015 -1.82882e-014
rhumerus -1.87183 8.61381 -70.3098
rradius 19.2024
rwrist 21.2564
rhand 6.69682 -23.7927
rfingers 7.12502
rthumb 31.9871 -51.0013
lclavicle 1.88845e-015 -1.82882e-014
lhumerus -27.6222 -9.36194 81.4032
lradius 24.9375
lwrist 14.7611
lhand 12.7279 -15.4872
lfingers 7.12502
lthumb 37.7088 10.3906
rfemur 12.2436 -3.33363 25.1903
rtibia 3.18055e-015
rfoot -2.8742 -13.8508
rtoes 37.5099
lfemur -38.5059 2.20091 -11.5178
ltibia 72.497
lfoot -7.09917 -13.8179
ltoes 4.40409
1124
root 8.43179 21.1411 25.0813 389.404 -83.6491 -26.6684
lowerback 1.27962 4.6417 4.66722
upperback 1.31449 6.22656 -2.1533
thorax 1.37938 3.18287 -4.78983
lowerneck 1.16008 -4.26427 -2.6379
upperneck 4.1574 -5.76373 1.4914
head 1.21364 -2.90849 0.850893
rclavicle 2.51463e-014 -6.36111e-015
rhumerus -4.31674 6.80416 -71.7167
rradius 18.8034
rwrist 22.0465
rhand 6.06732 -23.7728
rfingers 7.12502
rthumb 31.3875 -51.0997
lclavicle 2.51463e-014 -6.36111e-015
lhumerus -27.6301 -8.81577 81.0658
lradius 24.8883
lwrist 14.3888
lhand 12.2832 -15.8838
lfingers 7.12502
lthumb 37.2886 10.1055
rfemur 12.2633 -3.82733 25.0391
rtibia -1.27222e-014
rfoot -3.0236 -13.7321
rtoes 37.4696
lfemur -38.9789 1.81505 -11.5357
ltibia 71.9014
lfoot -8.58904 -13.1965
ltoes 4.70157
